<?xml version="1.0" standalone="no"?><!DOCTYPE svg PUBLIC "-//W3C//DTD SVG 1.1//EN" "http://www.w3.org/Graphics/SVG/1.1/DTD/svg11.dtd"><svg class="icon" width="20px" height="20.00px" viewBox="0 0 1024 1024" version="1.1" xmlns="http://www.w3.org/2000/svg"><path fill="#ffffff" d="M527.652571 208.969143c196.681143 0 357.083429 150.674286 365.421715 339.602286l0.292571 15.36V950.857143L987.428571 950.857143v73.142857H36.571429v-73.142857l125.366857-0.073143V563.931429c0-196.022857 163.766857-354.962286 365.714285-354.962286z m0 73.142857c-156.964571 0-284.379429 118.857143-292.205714 267.337143l-0.365714 14.482286v376.466285h585.142857V563.931429c0-150.308571-122.441143-273.846857-277.430857-281.453715l-15.140572-0.365714z m-66.56 64.731429l8.630858 72.630857c-47.762286 5.632-84.406857 51.785143-89.526858 116.882285l-0.585142 12.434286-73.142858-1.097143c1.609143-101.010286 58.806857-182.784 142.994286-199.094857l11.702857-1.755428z m469.723429-239.542858l59.099429 59.099429-108.324572 108.324571-59.099428-59.099428 108.324571-108.324572z m-798.573714 0L240.64 215.625143l-59.099429 59.099428L73.142857 166.4l59.099429-59.099429zM573.293714 0v153.234286H489.691429V0h83.602285z" /></svg>