<?xml version="1.0" standalone="no"?><!DOCTYPE svg PUBLIC "-//W3C//DTD SVG 1.1//EN" "http://www.w3.org/Graphics/SVG/1.1/DTD/svg11.dtd"><svg t="1731381307428" class="icon" viewBox="0 0 1024 1024" version="1.1" xmlns="http://www.w3.org/2000/svg" p-id="3391" xmlns:xlink="http://www.w3.org/1999/xlink" width="20" height="20"><path d="M415.451429 29.257143a64.365714 64.365714 0 0 1 64.365714 64.365714v321.828572a64.365714 64.365714 0 0 1-64.365714 64.365714h-321.828572a64.365714 64.365714 0 0 1-64.365714-64.365714v-321.828572A64.365714 64.365714 0 0 1 93.622857 29.257143h321.828572z m355.181714 448.292571a224.109714 224.109714 0 1 0 0-448.292571 224.109714 224.109714 0 0 0 0 448.292571zM415.451429 544.182857a64.365714 64.365714 0 0 1 64.365714 64.365714v321.828572a64.365714 64.365714 0 0 1-64.365714 64.365714h-321.828572a64.365714 64.365714 0 0 1-64.365714-64.365714v-321.828572a64.365714 64.365714 0 0 1 64.365714-64.365714h321.828572z m514.925714 0a64.365714 64.365714 0 0 1 64.365714 64.365714v321.828572a64.365714 64.365714 0 0 1-64.365714 64.365714h-321.828572a64.365714 64.365714 0 0 1-64.365714-64.365714v-321.828572a64.365714 64.365714 0 0 1 64.365714-64.365714h321.828572z" p-id="3392"></path></svg>