<?xml version="1.0" standalone="no"?><!DOCTYPE svg PUBLIC "-//W3C//DTD SVG 1.1//EN" "http://www.w3.org/Graphics/SVG/1.1/DTD/svg11.dtd"><svg class="icon" width="20px" height="20.00px" viewBox="0 0 1024 1024" version="1.1" xmlns="http://www.w3.org/2000/svg"><path fill="#ffffff" d="M418.670446 0a139.702857 139.702857 0 0 1 131.584 186.221714h194.048a92.964571 92.964571 0 0 1 92.964571 93.037715v199.533714L804.57216 459.995429a73.142857 73.142857 0 0 0-64.365714-4.315429L731.429303 460.068571 519.534446 582.217143a73.142857 73.142857 0 0 0-36.059429 54.710857l-0.512 8.630857v207.506286A139.702857 139.702857 0 0 0 287.159589 1024H92.89216A92.964571 92.964571 0 0 1 0.000731 930.742857v-193.243428a139.410286 139.410286 0 1 0 0-263.241143V280.137143C0.000731 228.790857 41.69216 187.245714 92.965303 187.245714h194.121143A139.556571 139.556571 0 0 1 418.889874 1.170286L418.670446 0zM804.57216 533.138286l148.553143 85.723428a73.142857 73.142857 0 0 1 36.571428 63.341715v171.593142a73.142857 73.142857 0 0 1-36.571428 63.341715L804.57216 1002.788571a73.142857 73.142857 0 0 1-73.142857 0L582.87616 917.211429a73.142857 73.142857 0 0 1-36.571429-63.341715V682.203429a73.142857 73.142857 0 0 1 36.571429-63.341715L731.429303 533.211429a73.142857 73.142857 0 0 1 73.142857 0z m-36.571429 143.579428a91.428571 91.428571 0 1 0 0 182.857143 91.428571 91.428571 0 0 0 0-182.857143z"  /></svg>