<?xml version="1.0" standalone="no"?><!DOCTYPE svg PUBLIC "-//W3C//DTD SVG 1.1//EN" "http://www.w3.org/Graphics/SVG/1.1/DTD/svg11.dtd"><svg class="icon" width="20px" height="20.00px" viewBox="0 0 1024 1024" version="1.1" xmlns="http://www.w3.org/2000/svg"><path fill="#ffffff" d="M877.714286 0a146.285714 146.285714 0 0 1 146.285714 146.285714v731.428572a146.285714 146.285714 0 0 1-146.285714 146.285714H146.285714a146.285714 146.285714 0 0 1-146.285714-146.285714V146.285714a146.285714 146.285714 0 0 1 146.285714-146.285714zM424.813714 240.201143a36.571429 36.571429 0 0 0-62.171428-19.382857L184.100571 401.92l-4.169142 5.12a36.571429 36.571429 0 0 0 4.534857 46.592l5.12 4.242286a36.571429 36.571429 0 0 0 46.592-4.534857l116.004571-117.76v468.772571l0.658286 6.582857a36.571429 36.571429 0 0 0 72.557714-6.582857V246.491429z m198.290286-30.427429a36.571429 36.571429 0 0 0-36.571429 36.571429v557.860571l0.512 6.290286a36.571429 36.571429 0 0 0 62.098286 19.382857l178.614857-181.174857 4.242286-5.12a36.571429 36.571429 0 0 0-4.534857-46.592l-5.12-4.169143a36.571429 36.571429 0 0 0-46.665143 4.534857L659.748571 715.044571V246.345143l-0.585142-6.582857a36.571429 36.571429 0 0 0-35.986286-29.988572z"  /></svg>