<?xml version="1.0" standalone="no"?><!DOCTYPE svg PUBLIC "-//W3C//DTD SVG 1.1//EN" "http://www.w3.org/Graphics/SVG/1.1/DTD/svg11.dtd"><svg class="icon" width="20px" height="20.00px" viewBox="0 0 1024 1024" version="1.1" xmlns="http://www.w3.org/2000/svg"><path fill="#ffffff" d="M924.808533 318.600533c7.509333 0 13.653333 6.144 13.653334 13.653334v415.9488a13.653333 13.653333 0 0 1-6.894934 11.8784L544.085333 978.7392a13.653333 13.653333 0 0 1-20.343466-11.946667V543.675733a13.653333 13.653333 0 0 1 7.099733-11.946666l387.413333-211.421867a13.653333 13.653333 0 0 1 6.485334-1.706667z m-860.16 0a13.653333 13.653333 0 0 1 6.5536 1.706667L447.829333 525.9264a13.653333 13.653333 0 0 1 7.099734 12.014933v423.1168a13.653333 13.653333 0 0 1-20.343467 11.8784L57.9584 760.081067a13.653333 13.653333 0 0 1-6.9632-11.8784V332.253867c0-7.509333 6.144-13.653333 13.653333-13.653334zM506.743467 28.125867l407.825066 198.656a13.653333 13.653333 0 0 1 0.477867 24.302933L508.5184 469.8112a27.306667 27.306667 0 0 1-25.8048 0L74.5472 251.0848A13.653333 13.653333 0 0 1 75.093333 226.7136L482.781867 28.0576a27.306667 27.306667 0 0 1 23.893333 0z"  /></svg>