<svg t="1731316862941" class="icon" viewBox="0 0 1170 1024" version="1.1"
  xmlns="http://www.w3.org/2000/svg" p-id="2163" xmlns:xlink="http://www.w3.org/1999/xlink"
  width="22.8515625" height="20">
  <path
    d="M782.774857 0a146.285714 146.285714 0 0 1 126.098286 72.118857l198.436571 337.261714a146.285714 146.285714 0 0 1 0 148.333715l-198.436571 337.261714a146.285714 146.285714 0 0 1-126.098286 72.118857h-401.554286a146.285714 146.285714 0 0 1-126.025142-72.118857L56.758857 557.787429a146.285714 146.285714 0 0 1 0-148.406858L255.268571 72.118857A146.285714 146.285714 0 0 1 381.220571 0zM581.997714 341.357714a142.189714 142.189714 0 1 0 0 284.452572 142.189714 142.189714 0 0 0 0-284.525715z"
    p-id="2164"></path>
</svg>