<?xml version="1.0" standalone="no"?><!DOCTYPE svg PUBLIC "-//W3C//DTD SVG 1.1//EN" "http://www.w3.org/Graphics/SVG/1.1/DTD/svg11.dtd"><svg class="icon" width="20px" height="20.00px" viewBox="0 0 1024 1024" version="1.1" xmlns="http://www.w3.org/2000/svg"><path fill="#ffffff" d="M512 0a512 512 0 1 1 0 1024A512 512 0 0 1 512 0z m0 73.142857a438.857143 438.857143 0 1 0 0 877.714286A438.857143 438.857143 0 0 0 512 73.142857z m0.219429 614.546286c15.36 0 28.379429 4.315429 38.619428 14.482286 10.24 9.435429 15.36 21.796571 15.36 37.156571a51.565714 51.565714 0 0 1-16.018286 37.814857c-10.24 9.508571-23.771429 14.628571-37.814857 14.482286a52.297143 52.297143 0 0 1-53.174857-52.443429c0-15.36 5.12-27.574857 15.36-37.083428a51.2 51.2 0 0 1 37.668572-14.409143z m13.019428-425.910857c46.592 0 84.48 12.288 113.590857 38.546285 29.110857 25.453714 43.739429 60.416 43.739429 104.155429 0 35.620571-9.508571 65.462857-27.648 88.795429-6.582857 8.045714-27.062857 26.916571-61.220572 56.758857a123.099429 123.099429 0 0 0-30.573714 37.814857 98.011429 98.011429 0 0 0-11.702857 48.128v12.434286H473.307429v-12.434286c0-26.916571 4.388571-50.249143 14.482285-69.12 9.508571-20.333714 37.229714-50.322286 82.358857-90.331429l12.361143-13.750857c13.165714-16.822857 20.333714-34.157714 20.333715-53.174857 0-25.526857-7.314286-45.129143-21.211429-59.611429-14.482286-14.628571-35.620571-21.869714-61.878857-21.869714-32.768 0-56.832 10.24-71.314286 31.305143-13.165714 17.554286-19.748571 42.276571-19.748571 74.313143H352.475429c0-53.174857 15.36-94.646857 45.787428-125.293714 30.866286-31.451429 73.142857-46.665143 126.976-46.665143z" /></svg>