<?xml version="1.0" standalone="no"?><!DOCTYPE svg PUBLIC "-//W3C//DTD SVG 1.1//EN" "http://www.w3.org/Graphics/SVG/1.1/DTD/svg11.dtd"><svg class="icon" width="20px" height="20.00px" viewBox="0 0 1024 1024" version="1.1" xmlns="http://www.w3.org/2000/svg"><path fill="#ffffff" d="M512.400793 0.002925a506.110975 506.110975 0 0 1 197.471045 39.859897A511.596281 511.596281 0 0 1 1023.923937 511.964894c0 54.999343-8.557079 109.925548-25.598098 160.244096-11.409438 33.131253-28.523595 66.335644-42.785393 96.687675v123.236559a42.419706 42.419706 0 0 1-42.639119 42.639119h-108.243387c-25.598098 14.261798-53.09777 28.523595-82.499015 42.712255-0.950787 0-2.85236 1.901573-3.803146 2.779222A517.081588 517.081588 0 0 1 512.400793 1023.926863C229.651512 1023.926863 0 794.494763 0 511.964894 0 228.484238 228.700725-0.947861 512.400793 0.002925z m-11.62885 709.286739a49.002074 49.002074 0 0 0-35.983613 13.676698 42.273431 42.273431 0 0 0-14.18866 33.716353 45.125791 45.125791 0 0 0 14.18866 34.594002 52.439533 52.439533 0 0 0 35.983613 13.676698 52.439533 52.439533 0 0 0 35.983612-13.676698 43.516767 43.516767 0 0 0 15.06631-34.594002 45.125791 45.125791 0 0 0-14.188661-33.716353 50.903647 50.903647 0 0 0-36.861261-13.676698zM511.961969 216.489701c-60.265237 0-105.756715 20.990441-139.180518 56.315816a153.734865 153.734865 0 0 0-36.276163 63.33701 311.492289 311.492289 0 0 0-6.362956 40.29872 28.157908 28.157908 0 0 0 27.938496 31.449093 36.788124 36.788124 0 0 0 36.203025-29.840069c5.777857-30.205756 13.384149-51.049922 22.818877-62.605635 20.112792-26.475748 51.049922-39.347934 92.884528-39.347935 35.105964 0 62.75191 8.776491 81.987052 28.084771 18.430631 17.699257 28.523595 42.639118 28.523596 74.746448 0 22.526327-8.410804 43.44363-25.159274 63.556421-5.046482 6.436093-15.066309 16.090233-28.450458 28.889283-45.198928 38.61656-72.771737 69.114866-84.546862 93.250215-10.019827 20.112792-14.993172 33.423803-14.993172 59.972688 0 15.651409 12.725912 28.450458 28.450458 28.450458h10.019827a28.523595 28.523595 0 0 0 27.792221-22.745739l0.658237-5.704719c0-21.721815 4.973345-31.010268 15.870821-48.709524 7.021193-12.067675 16.821608-24.13535 30.644581-36.64185l35.617925-30.863993c21.136716-18.650043 34.740276-31.595367 40.88382-38.61656 21.209853-27.060847 32.399879-60.118963 31.741642-93.98159 0-48.2707-15.870821-86.009611-46.807951-113.363007C609.527292 233.457583 565.498563 216.489701 511.961969 216.489701z"  /></svg>