<?xml version="1.0" standalone="no"?><!DOCTYPE svg PUBLIC "-//W3C//DTD SVG 1.1//EN" "http://www.w3.org/Graphics/SVG/1.1/DTD/svg11.dtd"><svg class="icon" width="20px" height="20.00px" viewBox="0 0 1024 1024" version="1.1" xmlns="http://www.w3.org/2000/svg"><path fill="#ffffff" d="M950.857143 554.057143v420.571428c0 43.885714-5.485714 49.371429-49.371429 49.371429h-702.171428C122.514286 1024 73.142857 974.628571 73.142857 897.828571V126.171429C73.142857 49.371429 122.514286 0 199.314286 0h696.685714c49.371429 0 54.857143 5.485714 54.857143 49.371429v504.685714z m0 288.914286H204.8c-21.942857 0-43.885714 21.942857-43.885714 43.885714 0 27.428571 21.942857 43.885714 43.885714 43.885714H950.857143v-87.771428zM248.685714 548.571429s76.8-93.257143 137.142857-93.257143C435.2 455.314286 512 548.571429 512 548.571429V93.257143H248.685714V548.571429z" /></svg>