<?xml version="1.0" standalone="no"?><!DOCTYPE svg PUBLIC "-//W3C//DTD SVG 1.1//EN" "http://www.w3.org/Graphics/SVG/1.1/DTD/svg11.dtd"><svg class="icon" width="20px" height="20.00px" viewBox="0 0 1024 1024" version="1.1" xmlns="http://www.w3.org/2000/svg"><path fill="#ffffff" d="M475.428571 21.650286L51.2 454.802286a51.2 51.2 0 0 0-14.628571 35.84V972.8a51.2 51.2 0 0 0 51.2 51.2H438.857143V650.971429h146.285714V1024h351.085714a51.2 51.2 0 0 0 51.2-51.2V489.984a51.2 51.2 0 0 0-14.628571-35.84L547.84 20.845714a51.2 51.2 0 0 0-72.411429 0.731429z m36.571429 67.145143l402.212571 410.038857V950.857143H658.285714V577.828571H365.714286V950.857143H109.714286V499.492571L512 88.795429z" /></svg>