<svg t="1731315994652" class="icon" viewBox="0 0 1024 1024" version="1.1"
  xmlns="http://www.w3.org/2000/svg" p-id="1849" xmlns:xlink="http://www.w3.org/1999/xlink"
  width="20" height="20">
  <path
    d="M491.136 55.488a33.344 33.344 0 0 1 48.96 0l430.976 466.496a33.28 33.28 0 0 1-24.512 55.936h-102.336v367.936a33.472 33.472 0 0 1-27.328 32.832l-6.016 0.512H615.68v-233.472a33.472 33.472 0 0 0-33.344-33.408H448.896a33.408 33.408 0 0 0-33.344 33.408V979.2H220.288a33.472 33.472 0 0 1-33.344-33.344L186.88 577.92H84.608a33.344 33.344 0 0 1-27.968-51.52l3.52-4.48z"
    p-id="1850"></path>
</svg>