<?xml version="1.0" standalone="no"?><!DOCTYPE svg PUBLIC "-//W3C//DTD SVG 1.1//EN" "http://www.w3.org/Graphics/SVG/1.1/DTD/svg11.dtd"><svg class="icon" width="20px" height="20.00px" viewBox="0 0 1024 1024" version="1.1" xmlns="http://www.w3.org/2000/svg"><path fill="#ffffff" d="M523.400533 834.3552l-0.068266 113.732267h265.557333V1024h-606.890667v-75.844267l265.489067-0.068266v-113.732267h75.912533z m308.974934-648.8064a417.109333 417.109333 0 0 1-51.950934 526.677333 414.446933 414.446933 0 0 1-295.048533 122.197334 417.109333 417.109333 0 1 1 346.999467-648.874667zM352.0512 94.8224a348.842667 348.842667 0 0 0 133.5296 671.266133 346.3168 346.3168 0 0 0 246.5792-102.126933 348.910933 348.910933 0 0 0 52.292267-426.530133l-8.874667-13.994667a348.842667 348.842667 0 0 0-423.5264-128.6144zM485.376 263.7824a197.8368 197.8368 0 0 1 197.563733 197.563733A197.8368 197.8368 0 0 1 485.376 658.978133a197.8368 197.8368 0 0 1-197.632-197.632A197.8368 197.8368 0 0 1 485.376 263.7824z m0 68.266667c-71.2704 0-129.365333 58.026667-129.365333 129.297066s58.026667 129.365333 129.365333 129.365334c71.2704 0 129.297067-58.094933 129.297067-129.365334s-58.026667-129.297067-129.297067-129.297066z" /></svg>