<?xml version="1.0" standalone="no"?><!DOCTYPE svg PUBLIC "-//W3C//DTD SVG 1.1//EN" "http://www.w3.org/Graphics/SVG/1.1/DTD/svg11.dtd"><svg class="icon" width="20px" height="20.00px" viewBox="0 0 1024 1024" version="1.1" xmlns="http://www.w3.org/2000/svg"><path fill="#ffffff" d="M146.285714 987.428571h731.428572a73.142857 73.142857 0 0 0 73.142857-73.142857v-804.571428a73.142857 73.142857 0 0 0-73.142857-73.142857H146.285714a73.142857 73.142857 0 0 0-73.142857 73.142857v804.571428a73.142857 73.142857 0 0 0 73.142857 73.142857z m346.697143-317.220571c34.962286 0 63.195429 27.428571 63.195429 61.44 0 34.011429-28.379429 61.44-63.195429 61.44H295.350857a62.317714 62.317714 0 0 1-63.268571-61.44c0-34.011429 28.306286-61.44 63.268571-61.44H492.982857z m70.217143-237.348571c34.962286 0 63.195429 27.428571 63.195429 61.44 0 34.011429-28.233143 61.44-63.195429 61.44H295.350857a62.317714 62.317714 0 0 1-63.268571-61.44c0-34.011429 28.306286-61.44 63.268571-61.44H563.2z m-70.217143-237.348572c34.962286 0 63.195429 27.428571 63.195429 61.44 0 34.011429-28.233143 61.44-63.195429 61.44H295.350857a62.317714 62.317714 0 0 1-63.268571-61.44c0-34.011429 28.306286-61.44 63.268571-61.44H492.982857z" /></svg>