<?xml version="1.0" standalone="no"?><!DOCTYPE svg PUBLIC "-//W3C//DTD SVG 1.1//EN" "http://www.w3.org/Graphics/SVG/1.1/DTD/svg11.dtd"><svg class="icon" width="20px" height="20.00px" viewBox="0 0 1024 1024" version="1.1" xmlns="http://www.w3.org/2000/svg"><path fill="#ffffff" d="M271.690047 619.683488a22.116926 22.116926 0 0 1 24.369576 10.921938l224.514099 343.085395c6.14359 10.921939 22.048663 10.921939 28.192254 0l188.198653-337.010066a22.526498 22.526498 0 0 1 24.369575-10.921939l51.879208 11.331511A136.45597 136.45597 0 0 1 921.54539 770.679288v162.259049c0 50.309179-40.752483 91.061663-90.9934 91.061663H193.325138A90.9934 90.9934 0 0 1 102.4 932.938337V770.679288c0-64.507699 45.121259-120.277848 108.263716-133.588961zM558.868769 614.359043c11.94587 0 21.707353 9.761483 21.707353 21.63909v21.707353a21.707353 21.707353 0 0 1-21.707353 21.639091h-12.969802l33.789747 126.14839a8.805813 8.805813 0 0 1-1.501766 6.962736l-52.220519 69.763882a12.969802 12.969802 0 0 1-20.819945 0l-52.220519-69.763882a8.737551 8.737551 0 0 1-1.501767-6.962736l33.789748-126.14839h-12.969802a21.707353 21.707353 0 0 1-21.707353-21.639091v-21.707353c0-11.877608 9.761483-21.639091 21.639091-21.63909z m177.754549-430.05133a259.39604 259.39604 0 1 1-449.301246 259.39604A259.39604 259.39604 0 0 1 736.555056 184.307713z" /></svg>