<?xml version="1.0" standalone="no"?><!DOCTYPE svg PUBLIC "-//W3C//DTD SVG 1.1//EN" "http://www.w3.org/Graphics/SVG/1.1/DTD/svg11.dtd"><svg class="icon" width="20px" height="20.00px" viewBox="0 0 1024 1024" version="1.1" xmlns="http://www.w3.org/2000/svg"><path fill="#ffffff" d="M680.192272 0a73.140976 73.140976 0 0 1 56.537975 26.623315l166.030016 201.722813a73.140976 73.140976 0 0 1 16.676143 46.517661V523.689391a304.485885 304.485885 0 0 0-399.349731-67.655403h-313.043379a34.156836 34.156836 0 0 0-6.070701 67.801685l6.143842 0.511987h236.391636A306.899537 306.899537 0 0 0 376.145233 716.781568a307.192101 307.192101 0 0 0 113.514796 238.95157H109.692656a73.140976 73.140976 0 0 1-73.140976-73.140976V73.140976a73.140976 73.140976 0 0 1 73.140976-73.140976h570.499616zM318.363862 660.901863h-111.174284a34.156836 34.156836 0 0 0-6.143842 67.728544l6.143842 0.511986h111.174284a34.156836 34.156836 0 1 0 0-68.24053z m296.001531-409.589468H207.116437a34.156836 34.156836 0 0 0-6.143842 67.728544l6.143842 0.511987h407.175815a34.156836 34.156836 0 1 0 0-68.240531z"  /><path fill="#ffffff" d="M681.728233 477.829999a238.293301 238.293301 0 0 1 237.708173 238.951569c0 51.564388-16.237297 99.252305-43.884586 138.309587l100.934547 104.006468a37.887026 37.887026 0 0 1-0.731409 54.051182 38.98414 38.98414 0 0 1-49.4433 3.73019l-5.266151-4.4616-99.325446-102.470508a235.806508 235.806508 0 0 1-139.991828 45.786251A238.293301 238.293301 0 0 1 444.020059 716.781568a238.293301 238.293301 0 0 1 237.708174-238.951569z m0 69.922773A168.589951 168.589951 0 0 0 513.650269 716.781568c0 93.327886 75.262065 168.955655 168.077964 168.955656a168.589951 168.589951 0 0 0 168.224245-168.955656c0-93.327886-75.335206-168.955655-168.224245-168.955655z"  /></svg>