<?xml version="1.0" standalone="no"?><!DOCTYPE svg PUBLIC "-//W3C//DTD SVG 1.1//EN" "http://www.w3.org/Graphics/SVG/1.1/DTD/svg11.dtd"><svg class="icon" width="20px" height="20.00px" viewBox="0 0 1024 1024" version="1.1" xmlns="http://www.w3.org/2000/svg"><path fill="#ffffff" d="M500.516571 0c22.162286 0 40.155429 17.993143 40.155429 40.155429v42.057142h-4.022857l16.822857 2.194286c205.677714 31.597714 357.888 204.8 357.888 410.770286v281.014857l53.76 3.949714 6.509714 0.585143a36.205714 36.205714 0 0 1-6.509714 71.753143H699.099429l-2.706286 12.873143C673.645714 958.537143 593.846857 1024 500.516571 1024a196.754286 196.754286 0 0 1-194.706285-168.082286l-269.604572-3.437714-6.582857-0.585143a36.205714 36.205714 0 0 1 6.582857-71.753143h49.444572l4.315428-301.641143A410.916571 410.916571 0 0 1 460.8 86.162286l0.219429-3.949715h-0.731429V40.228571c0-22.162286 18.066286-40.155429 40.228571-40.155428zM621.714286 852.48H383.707429l2.340571 11.044571c13.897143 53.906286 61.001143 87.990857 114.468571 87.990858a124.342857 124.342857 0 0 0 120.685715-94.061715l0.585143-4.973714zM500.516571 156.598857A338.505143 338.505143 0 0 0 161.938286 495.177143v281.014857l673.133714 3.949714 3.949714-284.964571-0.365714-15.506286A338.505143 338.505143 0 0 0 500.516571 156.525714z" /></svg>