<?xml version="1.0" standalone="no"?><!DOCTYPE svg PUBLIC "-//W3C//DTD SVG 1.1//EN" "http://www.w3.org/Graphics/SVG/1.1/DTD/svg11.dtd"><svg t="1731478751163" class="icon" viewBox="0 0 1170 1024" version="1.1" xmlns="http://www.w3.org/2000/svg" p-id="1789" xmlns:xlink="http://www.w3.org/1999/xlink" width="22.8515625" height="20"><path d="M309.321143 249.563429H73.142857a73.142857 73.142857 0 0 0-73.142857 73.142857v380.342857a73.142857 73.142857 0 0 0 73.142857 73.142857h236.178286l355.693714 212.772571a43.885714 43.885714 0 0 0 66.413714-37.668571V69.12a43.885714 43.885714 0 0 0-66.852571-37.449143L309.394286 249.563429z m683.154286-88.649143a439.808 439.808 0 0 1 2.267428 704.950857l-61.513143-81.554286a337.627429 337.627429 0 0 0-1.755428-541.403428l60.928-81.993143z m-137.216 116.297143a272.603429 272.603429 0 0 1 0.365714 473.819428l-50.761143-88.649143A170.788571 170.788571 0 0 0 804.571429 365.933714l50.688-88.649143z" p-id="1790"></path></svg>