<svg t="1730184905926" class="icon" viewBox="0 0 1024 1024" version="1.1"
  xmlns="http://www.w3.org/2000/svg" p-id="4418" xmlns:xlink="http://www.w3.org/1999/xlink">
  <path
    d="M867.84 607.963429l136.557714 75.337142c26.112 14.409143 26.112 37.814857 0 52.224l-445.001143 245.613715c-26.185143 14.409143-68.608 14.409143-94.793142 0L19.602286 735.524571c-26.112-14.409143-26.112-37.814857 0-52.224l136.557714-75.337142 308.443429 159.963428c26.185143 14.482286 68.608 14.482286 94.793142 0l308.443429-159.963428z m-728.502857-225.645715l331.264 168.667429c22.820571 11.410286 59.977143 11.410286 82.797714 0l321.024-162.669714 119.442286 59.757714c22.820571 11.410286 22.820571 29.988571 0 41.398857l-440.466286 222.354286c-22.820571 11.483429-59.977143 11.483429-82.797714 0L19.894857 483.401143c-22.820571-11.410286-22.820571-29.988571 0-41.398857l119.442286-59.684572zM559.396571 9.728l445.001143 222.573714c26.112 13.019429 26.112 34.304 0 47.323429L559.396571 502.125714c-26.185143 13.092571-68.608 13.092571-94.793142 0L19.602286 279.625143c-26.112-13.019429-26.112-34.304 0-47.323429L464.603429 9.728c26.331429-12.946286 68.608-12.946286 94.793142 0z"
    fill="#707070" p-id="4419"></path>
</svg>