<?xml version="1.0" standalone="no"?><!DOCTYPE svg PUBLIC "-//W3C//DTD SVG 1.1//EN" "http://www.w3.org/Graphics/SVG/1.1/DTD/svg11.dtd"><svg class="icon" width="20px" height="20.00px" viewBox="0 0 1024 1024" version="1.1" xmlns="http://www.w3.org/2000/svg"><path fill="#ffffff" d="M328.045714 688.201143a46.592 46.592 0 0 0 0 93.110857h372.297143a46.592 46.592 0 0 0 0-93.110857h-372.297143z m0-232.667429a46.518857 46.518857 0 1 0 0 92.964572h372.297143a46.518857 46.518857 0 1 0 0-92.964572h-372.297143z m-232.813714 458.605715V188.416a73.142857 73.142857 0 0 1 73.142857-73.142857h66.56v87.552c1.462857 18.285714 16.457143 32.621714 34.889143 33.133714h483.693714c16.530286 0 39.936-14.848 39.936-33.133714V115.273143h66.56a73.142857 73.142857 0 0 1 73.142857 73.142857V914.285714a73.142857 73.142857 0 0 1-73.142857 73.142857l-691.638857-0.146285a73.142857 73.142857 0 0 1-73.142857-73.142857zM700.416 36.571429a46.445714 46.445714 0 0 1 46.592 46.445714v46.665143c0 25.6-20.772571 46.445714-46.445714 46.445714H327.899429a46.445714 46.445714 0 0 1-46.518858-46.445714v-46.665143A46.445714 46.445714 0 0 1 327.899429 36.571429h372.516571z" /></svg>