<?xml version="1.0" standalone="no"?><!DOCTYPE svg PUBLIC "-//W3C//DTD SVG 1.1//EN" "http://www.w3.org/Graphics/SVG/1.1/DTD/svg11.dtd"><svg class="icon" width="20px" height="20.00px" viewBox="0 0 1024 1024" version="1.1" xmlns="http://www.w3.org/2000/svg"><path fill="#ffffff" d="M750.665143 622.957714c127.488 81.042286 216.210286 223.378286 228.278857 388.388572-44.617143 6.144-124.050286 12.653714-237.348571 12.653714H273.846857c-113.371429 0-192.658286-6.582857-237.275428-12.580571 12.214857-164.937143 100.937143-307.419429 228.205714-388.461715 67.291429 52.955429 150.893714 85.942857 242.980571 85.942857a389.851429 389.851429 0 0 0 242.834286-85.942857zM507.830857 0a315.465143 315.465143 0 0 1 315.099429 315.099429 315.538286 315.538286 0 0 1-315.172572 315.026285 315.465143 315.465143 0 0 1-315.026285-315.026285A315.465143 315.465143 0 0 1 507.757714 0z" /></svg>