<?xml version="1.0" standalone="no"?><!DOCTYPE svg PUBLIC "-//W3C//DTD SVG 1.1//EN" "http://www.w3.org/Graphics/SVG/1.1/DTD/svg11.dtd"><svg class="icon" width="20px" height="17.50px" viewBox="0 0 1170 1024" version="1.1" xmlns="http://www.w3.org/2000/svg"><path fill="#ffffff" d="M476.818286 14.628571c35.108571 0 63.634286 28.525714 63.634285 63.634286l-0.073142 19.675429 25.6-35.328a63.634286 63.634286 0 0 1 81.92-18.578286L654.628571 48.274286l270.555429 194.779428c17.261714 12.434286 26.404571 31.817143 26.477714 51.565715h125.659429a56.32 56.32 0 0 1 54.857143 69.558857l-142.116572 591.872a56.32 56.32 0 0 1-54.784 43.154285H235.008a56.32 56.32 0 0 1-54.857143-43.154285L38.253714 364.178286a56.32 56.32 0 0 1 54.784-69.485715l147.090286-0.073142V78.262857a63.634286 63.634286 0 0 1 55.588571-63.122286L303.762286 14.628571z m22.966857 516.754286H326.656l-7.460571 0.438857a63.634286 63.634286 0 0 0-0.512 126.317715l7.972571 0.438857h173.129143l7.387428-0.438857a63.634286 63.634286 0 0 0-7.387428-126.756572z m279.259428-236.763428l-147.236571-106.057143-76.653714 106.057143h223.890285zM413.184 141.824h-45.933714L367.177143 294.619429h46.006857V141.824z" /></svg>