<?xml version="1.0" standalone="no"?><!DOCTYPE svg PUBLIC "-//W3C//DTD SVG 1.1//EN" "http://www.w3.org/Graphics/SVG/1.1/DTD/svg11.dtd"><svg t="1731381361571" class="icon" viewBox="0 0 1365 1024" version="1.1" xmlns="http://www.w3.org/2000/svg" p-id="3548" xmlns:xlink="http://www.w3.org/1999/xlink" width="26.66015625" height="20"><path d="M546.730667 0C685.994667 0 798.72 114.517333 798.72 256S686.08 512 546.730667 512 294.656 397.482667 294.656 256s112.810667-256 252.074667-256z m0 585.130667c168.192 0 504.064 84.053333 504.064 250.794666V1024H42.666667V835.925333c0-166.741333 335.872-250.709333 504.149333-250.709333zM1134.848 1024V817.237333c0-142.08-163.84-242.773333-340.053333-263.936 30.549333-3.754667 91.562667 0 116.48 0 168.192 0 391.68 97.194667 391.68 263.936V1024h-168.106667zM751.530667 497.493333A255.744 255.744 0 0 0 919.466667 256 255.658667 255.658667 0 0 0 751.530667 14.506667c26.282667-9.386667 54.613333-14.506667 83.968-14.506667 139.349333 0 252.074667 114.517333 252.074666 256s-112.725333 256-252.074666 256c-29.44 0-57.685333-5.12-83.968-14.506667z" p-id="3549"></path></svg>