<svg t="1730873965235" class="icon" viewBox="0 0 1024 1024" version="1.1"
  xmlns="http://www.w3.org/2000/svg" p-id="1692" width="20" height="20">
  <path
    d="M52.56533333 245.76c-13.99466667 0-25.82755555-4.66488889-35.84-13.88088889-9.89866667-9.32977778-14.90488889-20.25244445-14.90488888-32.88177778v-107.52c0-13.312 5.00622222-24.576 14.90488888-33.792 9.89866667-9.32977778 21.84533333-13.88088889 35.84-13.88088888h648.87466667c13.88088889 0 25.82755555 4.66488889 35.84 13.88088888 9.89866667 9.32977778 14.90488889 20.59377778 14.90488889 33.792v107.52c0 12.62933333-5.00622222 23.552-14.90488889 32.88177778S715.43466667 245.76 701.44 245.76H52.56533333z m0 262.71288889c-13.99466667 0-25.82755555-4.66488889-35.84-13.88088889-9.89866667-9.32977778-14.90488889-20.59377778-14.90488888-33.792v-107.52c0-12.62933333 5.00622222-23.552 14.90488888-32.88177778s21.84533333-13.99466667 35.84-13.99466667h648.87466667c13.88088889 0 25.82755555 4.66488889 35.84 13.99466667 9.89866667 9.32977778 14.90488889 20.25244445 14.90488889 32.88177778V460.8c0 13.312-5.00622222 24.576-14.90488889 33.792-9.89866667 9.32977778-21.84533333 13.88088889-35.84 13.88088889H52.56533333z m346.33955556 130.38933333c-43.80444445 11.264-82.26133333 32.31288889-115.48444444 63.14666667-33.22311111 30.83377778-50.40355555 69.85955555-51.7688889 116.96355556-1.93422222 47.78666667 13.88088889 100.46577778 47.78666667 158.26488888H48.58311111c-22.528 0-37.54666667-14.56355555-44.82844444-43.80444444V614.05866667c0-23.89333333 14.90488889-38.79822222 44.82844444-44.82844445l395.15022222 1.024c-17.97688889 11.264-32.88177778 34.13333333-44.82844444 68.608zM110.25066667 91.47733333c-13.88088889 0-25.71377778 4.77866667-35.27111112 14.44977778-9.67111111 9.67111111-14.44977778 21.39022222-14.44977777 35.38488889 0 13.312 4.77866667 24.68977778 14.44977777 34.36088889 9.55733333 9.67111111 21.39022222 14.44977778 35.27111112 14.44977778 13.312 0 24.68977778-4.77866667 34.36088888-14.44977778 9.55733333-9.55733333 14.44977778-21.04888889 14.44977778-34.36088889 0-13.88088889-4.77866667-25.71377778-14.44977778-35.38488889-9.55733333-9.55733333-21.04888889-14.44977778-34.36088888-14.44977778z m0 265.78488889c-13.88088889 0-25.71377778 4.77866667-35.27111112 14.44977778-9.67111111 9.67111111-14.44977778 21.39022222-14.44977777 35.38488889 0 13.312 4.77866667 24.68977778 14.44977777 34.36088889 9.55733333 9.67111111 21.39022222 14.44977778 35.27111112 14.44977777 13.312 0 24.68977778-4.77866667 34.36088888-14.44977777 9.55733333-9.55733333 14.44977778-21.39022222 14.44977778-35.38488889 0-13.312-4.77866667-24.68977778-14.44977778-34.36088889-9.55733333-9.67111111-21.04888889-14.44977778-34.36088888-14.44977778z m814.19377778 364.20266667c64.39822222 32.54044445 96.48355555 76.34488889 96.48355555 131.41333333 0 55.75111111-32.54044445 96.48355555-97.50755555 122.42488889h-532.48c-67.69777778-35.15733333-101.48977778-84.30933333-101.48977778-147.34222222 0-63.03288889 21.73155555-101.83111111 65.19466666-116.39466667 43.46311111-14.56355555 75.43466667-18.88711111 96.02844445-12.97066667 3.29955555-57.00266667 25.48622222-90.90844445 66.67377777-101.48977777 49.72088889-4.66488889 86.24355555 3.98222222 109.45422223 25.82755555 68.38044445-61.66755555 135.39555555-79.98577778 201.04533333-54.72711111 66.33244445 24.576 98.53155555 75.66222222 96.59733334 153.25866667z m0 0"
    fill="#707070" p-id="1693"></path>
</svg>