<?xml version="1.0" standalone="no"?><!DOCTYPE svg PUBLIC "-//W3C//DTD SVG 1.1//EN" "http://www.w3.org/Graphics/SVG/1.1/DTD/svg11.dtd"><svg class="icon" width="20px" height="17.50px" viewBox="0 0 1170 1024" version="1.1" xmlns="http://www.w3.org/2000/svg"><path fill="#ffffff" d="M910.617617 363.899087a255.487563 255.487563 0 0 0 159.35991 19.810337v540.946485a49.269991 49.269991 0 0 1-49.854797 48.758285H87.282446a49.269991 49.269991 0 0 1-49.854797-48.758285V144.888861a49.269991 49.269991 0 0 1 49.854797-48.685184h688.610256a239.770874 239.770874 0 0 0 54.387052 206.656178l-255.853068 216.524796-319.52393-265.429283-64.548074 74.343592 384.729912 319.450829 335.533023-283.923803z m109.651314-72.808473a147.883073 147.883073 0 0 1-149.564393-146.201753 149.564393 149.564393 0 0 1 298.909484 0 147.883073 147.883073 0 0 1-149.564393 146.201753h0.219302z" /></svg>