<?xml version="1.0" standalone="no"?><!DOCTYPE svg PUBLIC "-//W3C//DTD SVG 1.1//EN" "http://www.w3.org/Graphics/SVG/1.1/DTD/svg11.dtd"><svg class="icon" width="20px" height="20.00px" viewBox="0 0 1024 1024" version="1.1" xmlns="http://www.w3.org/2000/svg"><path fill="#ffffff" d="M950.857143 0a73.142857 73.142857 0 0 1 73.142857 73.142857v877.714286a73.142857 73.142857 0 0 1-73.142857 73.142857H73.142857a73.142857 73.142857 0 0 1-73.142857-73.142857V73.142857a73.142857 73.142857 0 0 1 73.142857-73.142857h877.714286zM359.862857 638.537143a87.771429 87.771429 0 0 0-78.701714 49.005714H182.857143a36.571429 36.571429 0 0 0 0 73.142857h96.182857a87.771429 87.771429 0 0 0 161.645714 0H841.142857a36.571429 36.571429 0 0 0 0-73.142857H438.564571a87.771429 87.771429 0 0 0-78.701714-49.005714z m292.571429-219.428572a87.771429 87.771429 0 0 0-78.701715 49.005715H182.857143a36.571429 36.571429 0 0 0 0 73.142857h388.754286a87.771429 87.771429 0 0 0 161.645714 0H841.142857a36.571429 36.571429 0 1 0 0-73.142857H731.136a87.771429 87.771429 0 0 0-78.701714-49.005715z m-292.571429-219.428571a87.771429 87.771429 0 0 0-78.701714 49.005714H182.857143a36.571429 36.571429 0 0 0 0 73.142857h96.182857a87.771429 87.771429 0 0 0 161.645714 0H841.142857a36.571429 36.571429 0 1 0 0-73.142857H438.564571a87.771429 87.771429 0 0 0-78.701714-49.005714z"  /></svg>