<?xml version="1.0" standalone="no"?><!DOCTYPE svg PUBLIC "-//W3C//DTD SVG 1.1//EN" "http://www.w3.org/Graphics/SVG/1.1/DTD/svg11.dtd"><svg class="icon" width="20px" height="17.15px" viewBox="0 0 1194 1024" version="1.1" xmlns="http://www.w3.org/2000/svg"><path fill="#ffffff" d="M981.930667 938.666667c23.466667 0 42.069333 19.626667 42.069333 42.666666s-18.602667 42.666667-42.069333 42.666667H212.736A42.581333 42.581333 0 0 1 170.666667 981.333333c0-23.808 19.285333-42.666667 42.069333-42.666666h769.194667z m124.416-938.666667C1155.242667 0 1194.666667 35.328 1194.666667 78.592v688.810667c0 41.472-37.376 74.922667-83.541334 74.922666H86.954667C39.424 842.325333 0 807.594667 0 764.330667V77.397333C0 34.730667 38.741333 0 86.186667 0h1020.16z m-437.76 112.810667a42.666667 42.666667 0 0 0-44.885334 31.061333L482.986667 651.52l-1.450667 7.594667a42.666667 42.666667 0 0 0 83.626667 15.189333l140.8-507.648 1.450666-7.509333a42.666667 42.666667 0 0 0-31.061333-44.970667z m-252.757334 72.874666a42.666667 42.666667 0 0 0-60.330666 1.365334L159.914667 391.68l-5.12 6.485333a42.666667 42.666667 0 0 0 4.437333 51.797334l182.186667 199.594666 5.632 5.12a42.666667 42.666667 0 0 0 54.613333-2.389333l5.12-5.632a42.666667 42.666667 0 0 0-2.389333-54.613333L249.173333 421.802667l168.106667-175.786667 4.778667-5.973333a42.666667 42.666667 0 0 0-6.144-54.357334z m361.301334 0a42.666667 42.666667 0 0 0-6.144 54.357334l4.778666 5.973333 168.106667 175.872-155.306667 170.154667a42.666667 42.666667 0 0 0-2.474666 54.613333l5.205333 5.632a42.666667 42.666667 0 0 0 54.613333 2.474667l5.717334-5.205334 182.101333-199.68a42.666667 42.666667 0 0 0 4.437333-51.712l-5.12-6.485333-195.584-204.629333a42.666667 42.666667 0 0 0-60.330666-1.365334z"  /></svg>