<?xml version="1.0" standalone="no"?><!DOCTYPE svg PUBLIC "-//W3C//DTD SVG 1.1//EN" "http://www.w3.org/Graphics/SVG/1.1/DTD/svg11.dtd"><svg class="icon" width="20px" height="20.00px" viewBox="0 0 1024 1024" version="1.1" xmlns="http://www.w3.org/2000/svg"><path fill="#ffffff" d="M507.833833 541.382441c150.932191 0 273.285939-121.184297 273.285939-270.727766C781.119772 121.184297 658.766024 0 507.833833 0S234.547894 121.184297 234.547894 270.654675c0 149.543469 122.353747 270.727766 273.285939 270.727766z m368.888508 77.987723a43.85439 43.85439 0 0 1 33.987152 16.079943l3.727623 5.408708 93.921485 158.095075a43.85439 43.85439 0 0 1 3.36217 37.641685l-3.36217 7.089793-93.921485 158.095075a43.85439 43.85439 0 0 1-31.136616 20.977016l-6.578159 0.511635H686.832834a43.85439 43.85439 0 0 1-33.914062-16.079943l-3.800713-5.408708-93.848394-158.095075a43.85439 43.85439 0 0 1-3.435261-37.568594l3.435261-7.162884 93.848394-158.095075a43.85439 43.85439 0 0 1 31.209707-20.977016l6.578158-0.511635h189.816417z m-273.870664 1.754176l-98.380014 172.493933a73.09065 73.09065 0 0 0 0 72.432833l81.861528 143.623127H0.365453v-72.725197c0.219272-94.286938 2.485082-164.819415 24.193005-203.338187 21.781014-38.738044 56.572163-70.313205 99.403284-90.04768 42.904211-19.880657 97.502926-22.146467 197.271663-22.438829h281.618272z m174.540471 132.878801a67.608851 67.608851 0 0 0-67.974304 67.316488c0 37.203141 30.40571 67.316488 67.974304 67.316488 37.495503 0 67.974304-30.113348 67.974305-67.243398a67.608851 67.608851 0 0 0-67.974305-67.389578z"  /></svg>