<?xml version="1.0" standalone="no"?><!DOCTYPE svg PUBLIC "-//W3C//DTD SVG 1.1//EN" "http://www.w3.org/Graphics/SVG/1.1/DTD/svg11.dtd"><svg class="icon" width="20px" height="17.50px" viewBox="0 0 1170 1024" version="1.1" xmlns="http://www.w3.org/2000/svg"><path fill="#ffffff" d="M972.8 36.571429H197.485714a146.285714 146.285714 0 0 0-146.285714 146.285714v658.285714a146.285714 146.285714 0 0 0 146.285714 146.285714h775.314286a146.285714 146.285714 0 0 0 146.285714-146.285714v-658.285714a146.285714 146.285714 0 0 0-146.285714-146.285714zM365.714286 805.376c0 22.747429-15.798857 34.157714-31.597715 34.157714h-68.461714c-21.065143 0-31.597714-17.115429-31.597714-34.157714V441.270857c0-22.674286 15.798857-34.084571 31.597714-34.084571h68.461714c21.065143 0 31.597714 17.042286 31.597715 34.084571v364.105143z m285.257143 1.316571c0 22.966857-15.798857 34.450286-31.597715 34.450286h-68.461714c-21.065143 0-31.597714-17.188571-31.597714-34.377143V290.377143c0-22.893714 15.798857-34.377143 31.597714-34.377143h68.461714c21.065143 0 31.597714 17.188571 31.597715 34.377143v516.388571z m285.257142 4.827429c0 19.748571-15.798857 29.622857-31.597714 29.622857h-68.461714c-21.065143 0-31.597714-14.774857-31.597714-29.622857v-379.611429c0-19.748571 15.798857-29.622857 31.597714-29.622857h68.461714c21.065143 0 31.597714 14.774857 31.597714 29.622857v379.611429z" /></svg>