<?xml version="1.0" standalone="no"?><!DOCTYPE svg PUBLIC "-//W3C//DTD SVG 1.1//EN" "http://www.w3.org/Graphics/SVG/1.1/DTD/svg11.dtd"><svg class="icon" width="20px" height="20.00px" viewBox="0 0 1024 1024" version="1.1" xmlns="http://www.w3.org/2000/svg"><path fill="#ffffff" d="M64.832 279.936L315.968 425.6v162.752l0.448 6.528a49.088 49.088 0 0 0 18.752 32.512l5.44 3.648 143.36 82.56v289.152a78.4 78.4 0 0 1-3.584-1.472l-7.424-3.776L103.168 784.64a78.272 78.272 0 0 1-38.592-58.56L64 716.864V291.136c0-3.84 0.256-7.552 0.832-11.2zM960 294.528v422.336c0 24.832-11.84 48-31.488 62.72l-7.68 5.056-369.792 212.928c-3.584 2.048-7.296 3.84-11.072 5.248v-289.152l143.36-82.56 5.44-3.648a49.28 49.28 0 0 0 18.816-32.512l0.448-6.528V439.104a42.496 42.496 0 0 0 10.432-4.352L960 294.528zM512 0c10.752 0 21.568 2.24 31.616 6.656l7.424 3.776 369.728 212.928c6.784 3.904 12.8 8.768 18.048 14.272L690.56 381.888l-3.456-2.624-3.648-2.368-146.88-84.544-5.76-2.88a49.28 49.28 0 0 0-37.504 0l-5.824 2.88L345.92 373.76 110.528 237.248a42.432 42.432 0 0 0-18.816-5.696L95.36 228.48l7.68-5.12L473.088 10.432C484.992 3.456 498.432 0 512 0z" /></svg>