<?xml version="1.0" standalone="no"?><!DOCTYPE svg PUBLIC "-//W3C//DTD SVG 1.1//EN" "http://www.w3.org/Graphics/SVG/1.1/DTD/svg11.dtd"><svg class="icon" width="20px" height="20.00px" viewBox="0 0 1024 1024" version="1.1" xmlns="http://www.w3.org/2000/svg"><path fill="#ffffff" d="M988.10311111 816.45795555l-0.68266666-0.9671111-0.79644445-0.8760889a55.26186667 55.26186667 0 0 1-1.8432-75.09333333l0.91022222-1.13777777a37.80835555 37.80835555 0 0 0 0.36408889-42.74631112l-34.53155556-55.95591111-4.3463111-6.18951111-0.85333334-0.9216a41.14204445 41.14204445 0 0 0-34.13333333-12.73173333c-29.00195555 3.18577778-56.45653333-12.93653333-66.74204445-39.2192l-0.27306666-0.64853333a38.55928889 38.55928889 0 0 0-36.40888889-23.31306667h-61.31484445l-7.86204444 0.44373333-1.13777778 0.11377778c-22.3232 2.78755555-30.46968889 15.92888889-33.35964444 23.6544-10.78613333 27.65937778-40.52764445 43.97511111-70.83804445 38.78684444a39.20782222 39.20782222 0 0 0-39.82222222 18.48888889l-34.59982222 55.83075556-3.41333333 6.2464-0.42097778 1.13777777a37.54666667 37.54666667 0 0 0 4.55111111 35.56693334l1.13777777 1.38808889a59.76746667 59.76746667 0 0 1 0 78.39288889l-1.13777777 1.38808888a37.64906667 37.64906667 0 0 0-0.42097778 43.36071112l34.42915555 55.48942222 4.65351112 6.25777778 0.79644444 0.8192a39.15093333 39.15093333 0 0 0 34.2016 11.37777778l0.35271111-0.0568889a64.31857778 64.31857778 0 0 1 70.74702223 39.15093334l0.2048 0.50062222a38.68444445 38.68444445 0 0 0 35.5783111 23.31306667h61.67893334l7.85066666-0.44373333 1.13777778-0.11377778c22.15253333-2.7648 30.39004445-15.74684445 33.34826667-23.38133334a63.78382222 63.78382222 0 0 1 68.74453333-39.34435555l0.75093334 0.09102222a40.60728889 40.60728889 0 0 0 39.57191111-20.12728889L988.72888889 858.84017778l3.41333333-6.26915556 0.42097778-1.13777777a37.66044445 37.66044445 0 0 0-4.46008889-34.9752889z m-31.40266666 23.33582223l-34.4632889 55.81937777-0.39822222 0.6712889a3.41333333 3.41333333 0 0 1-3.12888888 1.72942222 100.88675555 100.88675555 0 0 0-108.032 61.88373333 14.26773333 14.26773333 0 0 1-3.09475556 0.73955555l-5.50684444 0.32995556H741.03466667a1.64977778 1.64977778 0 0 1-1.46773334-0.86471111 101.70595555 101.70595555 0 0 0-111.43395555-61.56515555 1.93422222 1.93422222 0 0 1-1.13777778-0.22755556l-1.36533333-1.79768889-34.23573334-55.18222222-0.69404444-1.04675556a0.45511111 0.45511111 0 0 1-0.07964444-0.31857777 97.15484445 97.15484445 0 0 0 0-124.96213334l1.024-1.90008889L626.08497778 657.63555555l0.22755555-0.38684444a1.68391111 1.68391111 0 0 1 1.69528889-0.84195556c47.4112 8.10097778 94.16248889-17.7152 111.50222223-61.44a14.51804445 14.51804445 0 0 1 2.98097777-0.70542222l5.50684445-0.32995555h61.44a1.58151111 1.58151111 0 0 1 1.44497778 0.8192c15.17795555 38.14968889 52.736 62.79395555 93.83253333 62.78257777a103.12817778 103.12817778 0 0 0 11.30951111-0.62577777 3.62951111 3.62951111 0 0 1 2.48035556 0.64853333l1.5815111 2.27555556L954.59555555 715.5712l0.59164445 0.91022222a0.45511111 0.45511111 0 0 1 0.06826667 0.35271111 97.01831111 97.01831111 0 0 0-21.504 60.7232v0.75093334a97.10933333 97.10933333 0 0 0 23.89333333 59.73333333zM774.21226667 677.74008889c-56.41102222 0-102.30897778 44.80568889-102.30897778 99.88551111s45.89795555 99.81724445 102.30897778 99.81724445a102.99164445 102.99164445 0 0 0 72.12373333-29.0360889 99.23697778 99.23697778 0 0 0 30.18524445-70.78115555c0-55.07982222-45.94346667-99.88551111-102.30897778-99.88551111z m46.20515555 143.92888889a65.99111111 65.99111111 0 0 1-46.20515555 18.5344c-35.88551111 0-65.06951111-28.06897778-65.06951112-62.57777778s29.19537778-62.64604445 65.06951112-62.64604445 65.06951111 28.10311111 65.06951111 62.64604445a61.80408889 61.80408889 0 0 1-18.87573333 44.04337778zM130.60551111 394.80888889h784.36124444v120.79786666h74.47893334V137.17048889A121.2416 121.2416 0 0 0 868.34062222 16.0768H177.23164445a121.2416 121.2416 0 0 0-121.10506667 121.09368889v750.04586666a121.2416 121.2416 0 0 0 121.10506667 121.10506667h317.05315555v-74.47893333H177.23164445a46.64888889 46.64888889 0 0 1-46.6488889-46.64888889V698.95964445h383.20355556v-74.47893334H130.60551111z m46.64888889-304.31004444h691.08622222a46.64888889 46.64888889 0 0 1 46.64888889 46.64888888v183.18222222h-784.384v-183.18222222a46.64888889 46.64888889 0 0 1 46.62613334-46.60337778zM211.26257778 167.43537778h184.66133333v74.47893333h-184.66133333zM211.26257778 462.48391111h184.66133333v74.47893334h-184.66133333zM211.26257778 780.50417778h184.66133333v74.47893333h-184.66133333z" /></svg>