<?xml version="1.0" standalone="no"?><!DOCTYPE svg PUBLIC "-//W3C//DTD SVG 1.1//EN" "http://www.w3.org/Graphics/SVG/1.1/DTD/svg11.dtd"><svg class="icon" width="20px" height="20.00px" viewBox="0 0 1024 1024" version="1.1" xmlns="http://www.w3.org/2000/svg"><path fill="#ffffff" d="M950.857143 0a73.142857 73.142857 0 0 1 73.142857 73.142857v146.285714a73.142857 73.142857 0 0 1-73.142857 73.142858H73.142857a73.142857 73.142857 0 0 1-73.142857-73.142858V73.142857a73.142857 73.142857 0 0 1 73.142857-73.142857h877.714286zM219.428571 73.142857a73.142857 73.142857 0 1 0 0 146.285714 73.142857 73.142857 0 0 0 0-146.285714z m731.428572 292.571429a73.142857 73.142857 0 0 1 73.142857 73.142857v146.285714a73.142857 73.142857 0 0 1-73.142857 73.142857H73.142857a73.142857 73.142857 0 0 1-73.142857-73.142857V438.857143a73.142857 73.142857 0 0 1 73.142857-73.142857h877.714286zM219.428571 438.857143a73.142857 73.142857 0 1 0 0 146.285714 73.142857 73.142857 0 0 0 0-146.285714z m731.428572 292.571428a73.142857 73.142857 0 0 1 73.142857 73.142858v146.285714a73.142857 73.142857 0 0 1-73.142857 73.142857H73.142857a73.142857 73.142857 0 0 1-73.142857-73.142857v-146.285714a73.142857 73.142857 0 0 1 73.142857-73.142858h877.714286zM219.428571 804.571429a73.142857 73.142857 0 1 0 0 146.285714 73.142857 73.142857 0 0 0 0-146.285714z"  /></svg>