<?xml version="1.0" standalone="no"?><!DOCTYPE svg PUBLIC "-//W3C//DTD SVG 1.1//EN" "http://www.w3.org/Graphics/SVG/1.1/DTD/svg11.dtd"><svg class="icon" width="20px" height="20.00px" viewBox="0 0 1024 1024" version="1.1" xmlns="http://www.w3.org/2000/svg"><path fill="#ffffff" d="M126.656 251.712l386.24 210.048 386.24-209.792a25.92 25.92 0 0 1 25.6 1.28l-1.728-1.536L525.184 35.392a25.92 25.92 0 0 0-25.6 0l-396.8 216.32-1.536 1.28a25.92 25.92 0 0 1 25.408-1.28z m797.376 62.4l-387.84 208v446.336a25.984 25.984 0 0 1-12.992 23.552l399.808-217.92a24.192 24.192 0 0 0 2.56-1.984 25.408 25.408 0 0 0 4.096-3.328 40.256 40.256 0 0 0 4.864-8.32 25.088 25.088 0 0 0 0-5.12 23.04 23.04 0 0 0 0-3.2V303.232c-2.944 4.8-3.904 6.784-10.496 10.816zM467.84 965.568V519.232L102.784 316.672a25.216 25.216 0 0 1-13.056-23.552v462.528a22.592 22.592 0 0 0 0 3.328 25.088 25.088 0 0 0 0 5.056c1.28 2.88 2.944 5.568 4.864 8.064 1.28 1.28 2.624 2.368 4.096 3.328a24.192 24.192 0 0 0 2.56 1.984l379.456 209.92h1.536a25.28 25.28 0 0 1-14.336-21.76z" /></svg>