<?xml version="1.0" standalone="no"?><!DOCTYPE svg PUBLIC "-//W3C//DTD SVG 1.1//EN" "http://www.w3.org/Graphics/SVG/1.1/DTD/svg11.dtd"><svg class="icon" width="20px" height="20.00px" viewBox="0 0 1024 1024" version="1.1" xmlns="http://www.w3.org/2000/svg"><path fill="#ffffff" d="M887.488 587.328c20.8 0 40.064 11.136 50.56 29.184l78.08 135.424a58.368 58.368 0 0 1 0 58.432l-78.08 135.424a58.368 58.368 0 0 1-50.56 29.12h-156.416a58.368 58.368 0 0 1-50.56-29.12L602.24 810.368a58.432 58.432 0 0 1 0-58.432l78.208-135.424a58.368 58.368 0 0 1 50.56-29.184h156.416z m-386.176-23.36c42.368 0 83.584 2.624 122.88 7.552a130.688 130.688 0 0 0-5.76 9.152L540.16 716.096a130.112 130.112 0 0 0 0 130.112l54.08 93.696H0v-125.312c0-138.432 224.32-250.624 501.312-250.624z m307.968 163.648a53.504 53.504 0 1 0 0 107.008 53.504 53.504 0 0 0 0-107.008zM501.312 0a250.624 250.624 0 1 1 0 501.312 250.624 250.624 0 0 1 0-501.312z" /></svg>