<?xml version="1.0" standalone="no"?><!DOCTYPE svg PUBLIC "-//W3C//DTD SVG 1.1//EN" "http://www.w3.org/Graphics/SVG/1.1/DTD/svg11.dtd"><svg class="icon" width="20px" height="20.00px" viewBox="0 0 1024 1024" version="1.1" xmlns="http://www.w3.org/2000/svg"><path fill="#ffffff" d="M960 742.4c-32.036571 0-32.036571-51.2-32.036571-31.963429V518.363429c0-51.2 0-63.926857-44.763429-63.926858h-307.2c6.436571 0-6.363429-12.8-6.363429-32.036571V358.4c0-19.236571 12.8-31.963429 31.963429-31.963429h57.563429c19.236571 0 32.036571-12.873143 32.036571-32.036571V32.036571C691.2 12.8 678.4 0 659.163429 0H364.836571c-12.8 0-32.036571 12.8-32.036571 32.036571v268.8c0 19.163429 12.8 31.963429 32.036571 31.963429h57.563429c19.236571 0 32.036571 12.8 32.036571 32.036571v63.926858c0 19.236571-12.8 32.036571-6.436571 32.036571H153.6c-38.4 0-57.563429 12.8-57.563429 64v198.363429c0-19.163429-6.436571 19.236571-32.036571 19.236571H32.036571c-19.236571 0-32.036571 12.8-32.036571 32.036571v217.6c0 19.163429 12.8 31.963429 32.036571 31.963429h217.6c19.163429 0 31.963429-12.8 31.963429-31.963429v-217.6c0-19.236571-12.8-32.036571-31.963429-32.036571h-32.036571c-19.236571 0-31.963429-12.8-31.963429-31.963429v-102.4c0-12.8 12.726857-32.036571 31.963429-32.036571h211.163429c19.236571 0 32.036571 12.8 32.036571 31.963429v102.4c0 19.236571-12.8 32.036571-32.036571 32.036571h-38.326858c-19.236571 0-32.036571 12.8-32.036571 32.036571v217.6c0 19.163429 12.8 31.963429 32.036571 31.963429h236.763429c19.236571 0 31.963429-12.8 31.963429-31.963429v-217.6c0-19.236571-12.726857-32.036571-31.963429-32.036571h-25.6c-19.163429 0-31.963429-12.8-31.963429-31.963429v-102.4c0-12.8 12.8-32.036571 31.963429-32.036571h198.436571c12.726857 0 31.963429 19.236571 31.963429 31.963429v102.4c0 19.236571-12.8 32.036571-31.963429 32.036571H768c-19.236571 0-31.963429 12.8-31.963429 32.036571v217.6c0 19.163429 12.726857 31.963429 31.963429 31.963429h224.036571c19.163429 0 31.963429-12.8 31.963429-31.963429v-217.6c0-19.236571-12.8-32.036571-31.963429-32.036571h-32.036571z" /></svg>